<?xml version="1.0" standalone="no"?>
<!DOCTYPE svg PUBLIC "-//W3C//DTD SVG 20010904//EN"
 "http://www.w3.org/TR/2001/REC-SVG-20010904/DTD/svg10.dtd">
<svg version="1.0" xmlns="http://www.w3.org/2000/svg"
 width="300.000000pt" height="300.000000pt" viewBox="0 0 300.000000 300.000000"
 preserveAspectRatio="xMidYMid meet">
<metadata>
Created by potrace 1.10, written by Peter Selinger 2001-2011
</metadata>
<g transform="translate(0.000000,300.000000) scale(0.100000,-0.100000)"
fill="#000000" stroke="none">
<path d="M1335 2576 c-165 -53 -287 -142 -374 -271 -58 -87 -87 -160 -108
-270 -23 -118 -10 -180 54 -256 25 -29 27 -39 25 -90 -5 -77 22 -137 80 -179
39 -28 67 -62 68 -82 0 -12 -78 -10 -101 2 -21 12 -26 1 -7 -18 7 -7 8 -12 2
-12 -21 0 -76 69 -89 111 l-14 44 0 -45 c-1 -25 3 -60 8 -78 l10 -32 -78 0
c-94 0 -103 -7 -95 -76 7 -61 -23 -405 -36 -418 -15 -15 -12 -35 11 -67 20
-28 23 -29 107 -29 83 0 91 2 145 36 46 29 57 41 57 62 0 26 2 27 45 24 50 -4
49 -3 59 -97 9 -77 57 -163 126 -228 37 -35 60 -65 60 -78 0 -27 71 -99 96
-98 16 0 16 2 -3 11 -13 6 -23 15 -23 19 0 4 26 -4 58 -19 50 -24 69 -27 162
-27 118 0 182 18 272 76 l50 33 -42 12 c-85 25 -112 77 -84 160 23 67 53 109
105 144 24 16 59 42 76 59 24 21 45 31 75 33 33 2 45 8 56 28 12 22 13 17 8
-51 -4 -51 -2 -79 6 -87 7 -7 42 -12 85 -12 61 0 75 3 93 22 21 22 27 67 11
84 -5 5 -14 75 -20 156 l-12 146 25 25 c23 23 46 82 46 120 0 9 -11 22 -24 28
l-23 11 19 41 c42 85 7 201 -77 258 l-33 23 5 72 c7 95 -1 133 -42 194 -25 38
-33 58 -29 78 9 43 -13 152 -38 189 -13 19 -49 52 -82 73 -62 43 -58 50 16 24
59 -20 122 -74 154 -133 l25 -46 -6 40 c-9 59 -51 139 -91 174 -89 78 -189
106 -374 105 -148 -2 -276 -28 -387 -79 -68 -31 -55 -11 28 42 107 69 64 61
-92 -17 -127 -64 -239 -159 -307 -260 -20 -30 -40 -56 -44 -58 -5 -2 -9 -13
-9 -25 -1 -15 -3 -17 -6 -6 -5 21 74 155 139 235 85 105 217 201 343 250 79
31 34 31 -60 0z m576 -140 c57 -13 149 -49 149 -60 0 -2 -30 5 -67 16 -72 20
-321 37 -293 20 8 -5 42 -12 75 -16 81 -8 193 -64 240 -119 44 -51 70 -133 61
-194 -12 -89 -58 -159 -156 -236 l-35 -28 40 21 c22 11 51 28 65 37 25 17 25
17 10 -2 -8 -11 -41 -51 -72 -88 -32 -38 -58 -74 -58 -81 0 -17 -97 -118 -129
-135 l-24 -13 6 53 c7 60 28 94 75 124 17 11 31 24 32 29 0 4 -30 6 -67 4 -61
-4 -77 -9 -160 -60 -51 -30 -90 -58 -87 -61 8 -8 -65 -53 -108 -67 -30 -9 -43
-9 -64 2 -42 20 -52 43 -32 75 19 32 45 45 34 18 -4 -10 12 -1 36 21 62 56 25
58 -47 2 -144 -111 -175 -125 -227 -97 -26 14 -17 53 20 92 31 33 17 35 -29 4
-20 -13 -37 -36 -43 -55 -12 -42 -29 -41 -56 4 -19 30 -21 39 -11 61 6 14 17
23 24 20 6 -2 23 -7 37 -11 l25 -7 -25 18 c-51 36 -141 127 -146 149 -3 12 2
50 10 84 47 182 194 326 414 404 219 78 431 104 583 72z m225 -492 c25 -51 26
-62 21 -138 l-6 -83 35 -34 c36 -35 44 -59 19 -59 -8 0 -24 -9 -35 -20 -17
-17 -20 -33 -20 -104 0 -46 -3 -91 -6 -100 -10 -27 -30 -18 -32 15 -1 18 -7
39 -12 48 -8 13 -9 11 -10 -11 0 -45 -10 -58 -43 -58 l-30 0 20 23 c27 30 46
67 34 67 -5 0 5 33 24 73 46 98 52 155 27 235 -23 71 -45 102 -74 102 -18 0
-17 4 9 50 15 27 33 50 40 50 6 0 24 -25 39 -56z m-51 -112 c9 -26 19 -76 22
-112 5 -60 3 -70 -30 -133 -39 -73 -116 -184 -132 -189 -5 -2 -59 -2 -119 0
-98 4 -109 6 -114 24 -3 15 -10 18 -26 13 -90 -27 -150 -35 -288 -36 -105 -1
-162 3 -180 12 -31 14 -37 29 -11 29 21 0 53 29 53 48 0 12 5 11 23 -6 52 -49
129 -64 194 -37 40 17 108 20 98 5 -12 -19 11 -10 65 27 30 20 87 49 125 64
81 31 128 81 138 146 5 27 18 50 47 78 22 21 40 33 40 26 0 -8 -22 -50 -49
-95 -28 -44 -57 -100 -67 -124 -13 -33 -23 -44 -44 -48 -20 -4 -33 -18 -48
-50 -12 -24 -18 -46 -13 -48 5 -3 26 8 47 25 46 36 217 323 210 352 -6 23 22
90 33 82 5 -3 17 -26 26 -53z m-355 -107 c0 -3 -4 -13 -10 -23 -5 -9 -16 -35
-25 -56 -15 -39 -16 -40 -31 -18 -17 24 -60 29 -97 11 -19 -9 -20 -8 -5 3 9 7
24 19 35 26 10 7 34 23 53 37 31 21 80 34 80 20z m-97 -143 c-38 -51 -65 -63
-129 -60 l-59 3 62 38 c72 44 136 69 142 55 2 -6 -5 -22 -16 -36z m-545 0 c2
-6 -3 -23 -11 -38 l-14 -26 -36 32 c-21 18 -37 35 -37 39 0 11 94 5 98 -7z
m219 -8 c32 -22 45 -25 86 -20 41 4 48 3 43 -10 -6 -16 26 -54 47 -54 6 -1 1
-7 -13 -15 -37 -21 -85 -18 -140 10 -27 14 -58 25 -68 25 -10 0 -28 13 -40 29
l-22 30 28 14 c37 20 36 20 79 -9z m381 -21 c-12 -15 -38 -17 -38 -3 0 6 4 10
9 10 5 0 12 10 15 23 7 21 7 21 15 2 5 -12 4 -25 -1 -32z m559 23 c24 -21 28
-32 27 -73 0 -26 -4 -60 -7 -75 -6 -24 -12 -28 -45 -28 l-37 0 3 100 c4 111
10 118 59 76z m-1079 -40 c34 -9 42 -15 40 -31 -2 -14 -12 -21 -31 -23 -33 -4
-52 10 -74 51 -14 28 -14 29 3 22 11 -5 38 -13 62 -19z m673 -33 c-5 -10 -24
-31 -41 -48 -31 -28 -32 -29 -20 -5 11 21 58 70 68 70 1 0 -2 -8 -7 -17z
m-662 -89 c6 -15 10 -28 9 -29 -2 -2 -24 -1 -50 2 -42 5 -46 8 -38 24 6 10 10
27 10 38 0 18 2 18 28 5 16 -7 34 -26 41 -40z m-200 -75 c-5 -10 -9 -37 -9
-61 0 -40 -3 -45 -40 -65 -21 -13 -40 -23 -42 -23 -2 0 -2 18 0 41 3 31 10 43
28 51 38 17 28 26 -26 25 l-50 -2 0 -46 c0 -25 -3 -67 -6 -93 l-7 -48 71 46
72 46 -6 -78 c-2 -42 -8 -106 -11 -142 -4 -36 -6 -72 -4 -80 3 -27 -77 -59
-157 -63 -97 -4 -90 16 9 23 68 5 150 33 135 47 -3 3 -20 -4 -39 -16 -27 -17
-50 -21 -112 -21 -62 0 -75 3 -67 13 6 7 14 32 18 54 5 34 14 47 45 67 21 15
41 26 44 26 15 0 -11 -68 -33 -87 l-27 -22 51 2 52 2 6 79 c4 43 5 81 2 83 -2
3 -32 -14 -66 -37 -34 -23 -63 -40 -66 -38 -2 2 1 58 7 124 8 86 15 122 26
129 8 6 22 16 31 23 15 12 14 13 -8 8 -21 -4 -28 0 -36 22 l-10 27 117 0 c109
1 117 0 108 -16z m191 17 c0 -19 -16 -36 -35 -36 -22 0 -22 -3 -29 -150 -4
-83 -4 -155 -1 -160 4 -6 -10 -10 -35 -10 -35 0 -41 3 -36 18 2 9 8 81 11 160
l7 144 -23 -4 c-19 -2 -25 2 -27 20 -3 21 -1 22 82 22 47 0 86 -2 86 -4z m127
-18 c34 -20 35 -23 29 -66 -3 -25 -6 -88 -6 -141 l0 -96 -31 -17 c-41 -24 -68
-22 -102 5 l-27 22 6 136 7 135 31 21 c40 28 51 28 93 1z m168 0 c32 -21 35
-27 35 -70 0 -40 -4 -50 -26 -65 l-26 -16 26 -14 c25 -13 26 -18 26 -93 l0
-80 -34 0 -33 0 5 91 5 91 -22 -14 c-20 -12 -22 -20 -19 -91 l3 -77 -35 0 -35
0 3 142 c3 133 5 144 25 160 l22 18 -22 0 c-13 0 -23 2 -23 4 0 2 -3 11 -6 20
-10 27 88 22 131 -6z m160 10 c19 -9 28 -9 37 0 7 7 35 12 63 12 l50 0 -3 -92
c-2 -51 1 -132 5 -180 l9 -88 -37 0 c-33 0 -38 3 -37 23 1 12 1 84 0 160 -2
131 -3 137 -23 137 -20 0 -20 -3 -14 -147 4 -82 8 -154 10 -160 3 -9 -8 -13
-33 -13 l-38 0 -2 158 c-1 143 -3 157 -19 160 -17 3 -18 -6 -15 -110 1 -62 3
-134 5 -161 l2 -47 -35 0 -35 0 3 142 c3 113 7 147 19 161 15 15 15 17 0 17
-9 0 -21 9 -27 20 -10 19 -8 20 39 20 28 0 62 -5 76 -12z m296 -11 c19 -16 28
-35 32 -69 6 -41 4 -49 -16 -63 l-22 -16 21 -17 c17 -13 23 -31 26 -76 5 -56
4 -59 -26 -77 -19 -12 -50 -19 -81 -19 l-50 0 -3 141 c-3 122 -1 143 14 160
16 17 16 19 1 19 -10 0 -17 2 -17 4 0 2 -3 11 -6 20 -10 27 94 21 127 -7z
m117 -114 c2 -76 7 -157 11 -180 l8 -43 -37 0 -38 0 -1 123 c-1 113 -5 155
-17 215 -4 20 0 22 33 22 l38 0 3 -137z m238 104 c-9 -25 -15 -28 -40 -23
l-28 6 6 -53 c3 -28 11 -119 17 -202 6 -82 16 -156 21 -162 8 -10 -2 -13 -47
-13 -47 0 -56 3 -51 15 3 8 1 77 -4 152 -5 76 -11 165 -13 198 -3 60 -3 60
-33 57 -24 -3 -31 2 -40 26 l-11 29 117 -1 116 -1 -10 -28z m-178 -97 c2 -21
-2 -30 -13 -30 -10 0 -15 10 -15 35 0 43 25 39 28 -5z m-1091 -77 c-2 -21 -4
-6 -4 32 0 39 2 55 4 38 2 -18 2 -50 0 -70z m1087 -56 c5 -54 4 -77 -4 -72 -5
3 -10 40 -10 82 0 42 2 74 4 72 2 -2 6 -39 10 -82z m-900 -92 c26 -20 71 -19
102 1 22 15 24 15 18 1 -7 -20 -48 -47 -70 -47 -21 0 -84 38 -84 51 0 13 12
11 34 -6z m776 6 c0 -22 -68 -51 -120 -51 -75 0 -61 24 18 30 33 3 67 11 74
18 14 14 28 16 28 3z m-862 -38 c2 -9 -9 -13 -37 -13 -39 0 -50 8 -34 24 11
11 66 2 71 -11z m296 2 c4 -12 -4 -15 -39 -15 -35 0 -43 3 -39 15 4 9 19 15
39 15 20 0 35 -6 39 -15z m96 3 c0 -9 3 -9 12 0 17 17 65 15 72 -3 4 -13 -8
-15 -79 -15 -71 0 -83 2 -79 15 7 18 74 21 74 3z m184 -3 c4 -12 -4 -15 -39
-15 -35 0 -43 3 -39 15 4 9 19 15 39 15 20 0 35 -6 39 -15z m100 0 c4 -12 -4
-15 -39 -15 -35 0 -43 3 -39 15 4 9 19 15 39 15 20 0 35 -6 39 -15z m270 0 c4
-12 -4 -15 -39 -15 -35 0 -43 3 -39 15 4 9 19 15 39 15 20 0 35 -6 39 -15z
m-877 -25 l25 -20 -27 -10 c-36 -14 -42 -13 -49 6 -6 15 9 44 21 44 3 0 16 -9
30 -20z m263 -21 l115 -1 -45 -15 c-39 -14 -56 -15 -130 -4 -47 7 -89 17 -95
23 -7 8 -3 9 15 4 14 -3 77 -6 140 -7z m249 -21 l-12 -21 28 21 c24 19 40 22
118 22 l91 0 -30 -31 c-37 -40 -88 -69 -197 -115 -48 -20 -87 -38 -85 -39 2
-2 32 3 68 10 36 7 66 12 68 10 2 -1 -23 -25 -54 -53 -53 -47 -166 -111 -224
-126 -23 -6 -23 -6 3 9 37 21 30 27 -14 15 -72 -21 -112 -13 -163 31 -83 73
-82 74 62 74 101 0 134 4 161 18 19 9 42 17 52 17 10 0 21 5 25 11 5 8 -1 10
-20 7 -14 -3 -26 -4 -26 -2 0 1 46 26 103 54 56 29 107 57 112 62 6 6 -28 -9
-75 -32 -47 -24 -107 -51 -135 -61 -27 -10 -42 -18 -32 -18 24 -1 21 -18 -5
-25 -37 -9 -146 -7 -215 5 -69 12 -85 26 -116 107 -16 40 -12 53 9 33 17 -17
116 -41 194 -47 84 -7 164 12 259 61 57 30 65 30 50 3z m564 -51 c3 -9 -11
-12 -53 -12 -42 0 -56 3 -53 12 3 8 24 13 53 13 29 0 50 -5 53 -13z m-1048
-127 c-12 -19 -23 -10 -39 30 -22 55 -21 56 15 16 17 -20 28 -40 24 -46z m509
-103 c-7 -52 15 -102 52 -119 l26 -12 -24 -9 c-42 -16 -204 -20 -270 -7 -81
15 -164 55 -171 80 -6 25 -3 25 20 1 32 -33 256 -73 290 -51 16 10 16 11 1 6
-10 -3 -44 -1 -75 5 -115 19 -115 19 -22 49 83 26 145 59 162 87 14 23 17 14
11 -30z"/>
<path d="M1610 2370 c109 -8 149 -21 187 -62 34 -38 63 -100 63 -138 0 -36
-30 -113 -48 -124 -6 -3 -8 -14 -6 -24 5 -20 -24 -54 -81 -97 -22 -16 -47 -37
-55 -47 -11 -12 -35 -19 -85 -22 -42 -3 -94 -15 -130 -30 -37 -16 -81 -26
-115 -27 l-55 -1 45 -13 45 -13 -76 -1 c-95 -1 -132 20 -169 96 -29 60 -40 66
-40 22 0 -27 -2 -30 -16 -18 -40 33 -55 108 -34 164 7 19 15 25 28 21 14 -5
21 4 34 42 10 27 34 70 54 96 l36 48 -28 -15 c-46 -24 -120 -103 -145 -155
-67 -137 11 -262 191 -308 82 -21 203 -8 312 32 75 28 123 33 193 20 l40 -8
-31 20 c-18 11 -34 24 -37 29 -3 5 22 28 57 51 87 57 138 132 144 210 3 49 -1
65 -28 117 -63 117 -100 138 -250 141 l-105 2 105 -8z"/>
<path d="M1275 2301 c-28 -16 -58 -37 -65 -47 -13 -16 -13 -17 0 -9 8 4 29 18
45 30 17 12 44 29 60 38 17 9 26 16 20 17 -5 0 -33 -13 -60 -29z"/>
<path d="M1500 2250 c-153 -21 -334 -108 -385 -186 -27 -41 -9 -40 42 3 27 22
62 48 78 59 26 16 28 16 16 1 -7 -9 -29 -26 -47 -38 -56 -34 -83 -107 -47
-127 13 -8 32 0 77 28 65 41 155 74 249 91 78 14 76 34 -4 25 -94 -11 -183
-43 -253 -91 -52 -35 -65 -41 -70 -28 -16 40 154 146 284 179 65 16 172 15
215 -2 17 -7 18 -6 7 8 -14 17 -84 38 -128 38 -15 0 -24 3 -21 7 12 12 157 3
192 -11 43 -18 75 -69 75 -118 0 -43 15 -51 24 -13 9 36 -9 97 -37 123 -49 46
-157 67 -267 52z"/>
<path d="M1996 2208 c9 -56 -13 -106 -75 -173 -52 -55 -49 -59 8 -10 59 51 93
144 72 195 -9 22 -10 21 -5 -12z"/>
<path d="M1475 2141 c-27 -6 -24 -8 23 -13 63 -6 152 1 152 13 0 10 -130 10
-175 0z"/>
<path d="M946 1948 c-5 -30 -4 -59 4 -82 16 -49 36 -60 25 -15 -4 19 -11 59
-14 89 l-7 55 -8 -47z"/>
<path d="M1120 1931 c0 -5 9 -19 21 -32 20 -24 20 -24 9 -1 -14 28 -9 28 36
-3 46 -31 124 -55 181 -55 46 0 130 18 137 29 2 3 -46 6 -108 6 -107 0 -116 2
-176 33 -62 32 -100 41 -100 23z"/>
<path d="M1500 1760 c-30 -10 -48 -18 -40 -19 23 -1 89 19 95 29 4 6 5 10 3 9
-2 -1 -28 -9 -58 -19z"/>
<path d="M2007 1633 c-9 -21 -37 -76 -62 -123 -44 -82 -29 -77 18 5 30 54 69
146 64 151 -2 3 -12 -12 -20 -33z"/>
<path d="M1720 1490 c-33 -14 -39 -19 -22 -19 24 -1 92 24 92 33 0 10 -24 5
-70 -14z"/>
<path d="M777 1203 c-16 -15 -6 -33 18 -33 18 0 25 5 25 20 0 20 -28 28 -43
13z"/>
<path d="M881 928 c-11 -18 -20 -20 -72 -14 -36 3 -59 2 -59 -4 0 -18 113 -11
143 9 20 13 24 20 14 24 -7 3 -19 -4 -26 -15z"/>
<path d="M1230 1218 c0 -57 -3 -120 -6 -140 -6 -33 -4 -38 13 -38 18 0 21 9
27 92 11 160 9 188 -14 188 -19 0 -20 -7 -20 -102z"/>
<path d="M1285 1128 c11 -31 13 -68 4 -73 -5 -4 -9 -12 -9 -18 0 -7 7 -4 14 6
19 24 19 97 1 97 -8 0 -12 -6 -10 -12z"/>
<path d="M1400 1255 c0 -63 1 -65 20 -55 16 9 20 21 20 65 0 48 -2 55 -20 55
-18 0 -20 -7 -20 -65z"/>
<path d="M1354 1190 c0 -12 7 -20 17 -20 12 0 16 6 12 20 -3 11 -11 20 -17 20
-6 0 -12 -9 -12 -20z"/>
<path d="M1352 1083 c2 -36 8 -57 16 -59 7 -1 8 0 2 3 -5 2 -10 27 -10 54 0
31 4 48 10 44 6 -3 10 -1 10 4 0 6 -7 11 -15 11 -13 0 -15 -11 -13 -57z"/>
<path d="M1530 1190 c0 -11 7 -20 15 -20 8 0 15 9 15 20 0 11 -7 20 -15 20 -8
0 -15 -9 -15 -20z"/>
<path d="M1630 1190 c0 -11 7 -20 15 -20 8 0 15 9 15 20 0 11 -7 20 -15 20 -8
0 -15 -9 -15 -20z"/>
<path d="M1860 1255 c0 -63 1 -65 20 -55 16 9 20 21 20 65 0 48 -2 55 -20 55
-18 0 -20 -7 -20 -65z"/>
<path d="M1872 1158 c-7 -7 -9 -27 -6 -53 5 -36 3 -42 -17 -52 -22 -11 -20
-12 20 -12 35 -1 42 2 37 15 -3 9 -6 38 -6 65 0 50 -7 58 -28 37z"/>
<path d="M2160 1190 c0 -13 7 -20 20 -20 13 0 20 7 20 20 0 13 -7 20 -20 20
-13 0 -20 -7 -20 -20z"/>
<path d="M1230 824 c20 -15 45 -19 125 -20 55 -1 82 0 60 2 -68 7 -172 24
-192 30 -12 4 -10 0 7 -12z"/>
<path d="M1635 574 c-33 -13 -52 -23 -42 -23 10 -1 27 4 37 9 14 8 21 6 28 -6
7 -13 11 -12 26 11 10 15 16 28 14 30 -2 1 -30 -8 -63 -21z"/>
</g>
</svg>
